<svg width="590" height="83" viewBox="0 0 590 83" fill="none" xmlns="http://www.w3.org/2000/svg">
<path d="M152.983 18.2902V62.7702H145.687V32.3062L132.119 62.7702H127.063L113.431 32.3062V62.7702H106.135V18.2902H114.007L129.623 53.1702L145.175 18.2902H152.983ZM194.893 44.2742C194.893 45.5969 194.808 46.7916 194.637 47.8582H167.693C167.906 50.6742 168.952 52.9356 170.829 54.6422C172.706 56.3489 175.01 57.2022 177.741 57.2022C181.666 57.2022 184.44 55.5596 186.061 52.2742H193.933C192.866 55.5169 190.925 58.1836 188.109 60.2742C185.336 62.3222 181.88 63.3462 177.741 63.3462C174.37 63.3462 171.341 62.5996 168.653 61.1062C166.008 59.5702 163.917 57.4369 162.381 54.7062C160.888 51.9329 160.141 48.7329 160.141 45.1062C160.141 41.4796 160.866 38.3009 162.317 35.5702C163.81 32.7969 165.88 30.6636 168.525 29.1702C171.213 27.6769 174.285 26.9302 177.741 26.9302C181.069 26.9302 184.034 27.6556 186.637 29.1062C189.24 30.5569 191.266 32.6049 192.717 35.2502C194.168 37.8529 194.893 40.8609 194.893 44.2742ZM187.277 41.9702C187.234 39.2822 186.274 37.1276 184.397 35.5062C182.52 33.8849 180.194 33.0742 177.421 33.0742C174.904 33.0742 172.749 33.8849 170.957 35.5062C169.165 37.0849 168.098 39.2396 167.757 41.9702H187.277ZM199.641 44.9782C199.641 41.4369 200.366 38.3009 201.817 35.5702C203.31 32.8396 205.316 30.7276 207.833 29.2342C210.393 27.6982 213.23 26.9302 216.345 26.9302C218.649 26.9302 220.91 27.4422 223.129 28.4662C225.39 29.4476 227.182 30.7702 228.505 32.4342V15.4102H235.865V62.7702H228.505V57.4582C227.31 59.1649 225.646 60.5729 223.513 61.6822C221.422 62.7916 219.012 63.3462 216.281 63.3462C213.209 63.3462 210.393 62.5782 207.833 61.0422C205.316 59.4636 203.31 57.2876 201.817 54.5142C200.366 51.6982 199.641 48.5196 199.641 44.9782ZM228.505 45.1062C228.505 42.6742 227.993 40.5622 226.969 38.7702C225.988 36.9782 224.686 35.6129 223.065 34.6742C221.444 33.7356 219.694 33.2662 217.817 33.2662C215.94 33.2662 214.19 33.7356 212.569 34.6742C210.948 35.5702 209.625 36.9142 208.601 38.7062C207.62 40.4556 207.129 42.5462 207.129 44.9782C207.129 47.4102 207.62 49.5436 208.601 51.3782C209.625 53.2129 210.948 54.6209 212.569 55.6022C214.233 56.5409 215.982 57.0102 217.817 57.0102C219.694 57.0102 221.444 56.5409 223.065 55.6022C224.686 54.6636 225.988 53.2982 226.969 51.5062C227.993 49.6716 228.505 47.5382 228.505 45.1062ZM249.16 22.8342C247.837 22.8342 246.728 22.3862 245.832 21.4902C244.936 20.5942 244.488 19.4849 244.488 18.1622C244.488 16.8396 244.936 15.7302 245.832 14.8342C246.728 13.9382 247.837 13.4902 249.16 13.4902C250.44 13.4902 251.528 13.9382 252.424 14.8342C253.32 15.7302 253.768 16.8396 253.768 18.1622C253.768 19.4849 253.32 20.5942 252.424 21.4902C251.528 22.3862 250.44 22.8342 249.16 22.8342ZM252.744 27.5062V62.7702H245.448V27.5062H252.744ZM259.891 45.1062C259.891 41.4796 260.616 38.3009 262.067 35.5702C263.56 32.7969 265.608 30.6636 268.211 29.1702C270.814 27.6769 273.8 26.9302 277.171 26.9302C281.438 26.9302 284.958 27.9542 287.731 30.0022C290.547 32.0076 292.446 34.8876 293.427 38.6422H285.555C284.915 36.8929 283.891 35.5276 282.483 34.5462C281.075 33.5649 279.304 33.0742 277.171 33.0742C274.184 33.0742 271.795 34.1409 270.003 36.2742C268.254 38.3649 267.379 41.3089 267.379 45.1062C267.379 48.9036 268.254 51.8689 270.003 54.0022C271.795 56.1356 274.184 57.2022 277.171 57.2022C281.395 57.2022 284.19 55.3462 285.555 51.6342H293.427C292.403 55.2182 290.483 58.0769 287.667 60.2102C284.851 62.3009 281.352 63.3462 277.171 63.3462C273.8 63.3462 270.814 62.5996 268.211 61.1062C265.608 59.5702 263.56 57.4369 262.067 54.7062C260.616 51.9329 259.891 48.7329 259.891 45.1062ZM298.266 44.9782C298.266 41.4369 298.991 38.3009 300.442 35.5702C301.935 32.8396 303.941 30.7276 306.458 29.2342C309.018 27.6982 311.834 26.9302 314.906 26.9302C317.679 26.9302 320.09 27.4849 322.138 28.5942C324.229 29.6609 325.893 31.0049 327.13 32.6262V27.5062H334.49V62.7702H327.13V57.5222C325.893 59.1862 324.207 60.5729 322.074 61.6822C319.941 62.7916 317.509 63.3462 314.778 63.3462C311.749 63.3462 308.975 62.5782 306.458 61.0422C303.941 59.4636 301.935 57.2876 300.442 54.5142C298.991 51.6982 298.266 48.5196 298.266 44.9782ZM327.13 45.1062C327.13 42.6742 326.618 40.5622 325.594 38.7702C324.613 36.9782 323.311 35.6129 321.69 34.6742C320.069 33.7356 318.319 33.2662 316.442 33.2662C314.565 33.2662 312.815 33.7356 311.194 34.6742C309.573 35.5702 308.25 36.9142 307.226 38.7062C306.245 40.4556 305.754 42.5462 305.754 44.9782C305.754 47.4102 306.245 49.5436 307.226 51.3782C308.25 53.2129 309.573 54.6209 311.194 55.6022C312.858 56.5409 314.607 57.0102 316.442 57.0102C318.319 57.0102 320.069 56.5409 321.69 55.6022C323.311 54.6636 324.613 53.2982 325.594 51.5062C326.618 49.6716 327.13 47.5382 327.13 45.1062ZM351.369 15.4102V62.7702H344.073V15.4102H351.369ZM387.124 18.2902V24.2422H368.244V37.3622H382.964V43.3142H368.244V62.7702H360.948V18.2902H387.124ZM401.181 32.6262C402.248 30.8342 403.656 29.4476 405.405 28.4662C407.197 27.4422 409.309 26.9302 411.741 26.9302V34.4822H409.885C407.027 34.4822 404.851 35.2076 403.357 36.6582C401.907 38.1089 401.181 40.6262 401.181 44.2102V62.7702H393.885V27.5062H401.181V32.6262ZM422.16 22.8342C420.837 22.8342 419.728 22.3862 418.832 21.4902C417.936 20.5942 417.488 19.4849 417.488 18.1622C417.488 16.8396 417.936 15.7302 418.832 14.8342C419.728 13.9382 420.837 13.4902 422.16 13.4902C423.44 13.4902 424.528 13.9382 425.424 14.8342C426.32 15.7302 426.768 16.8396 426.768 18.1622C426.768 19.4849 426.32 20.5942 425.424 21.4902C424.528 22.3862 423.44 22.8342 422.16 22.8342ZM425.744 27.5062V62.7702H418.448V27.5062H425.744ZM467.643 44.2742C467.643 45.5969 467.558 46.7916 467.387 47.8582H440.443C440.656 50.6742 441.702 52.9356 443.579 54.6422C445.456 56.3489 447.76 57.2022 450.491 57.2022C454.416 57.2022 457.19 55.5596 458.811 52.2742H466.683C465.616 55.5169 463.675 58.1836 460.859 60.2742C458.086 62.3222 454.63 63.3462 450.491 63.3462C447.12 63.3462 444.091 62.5996 441.403 61.1062C438.758 59.5702 436.667 57.4369 435.131 54.7062C433.638 51.9329 432.891 48.7329 432.891 45.1062C432.891 41.4796 433.616 38.3009 435.067 35.5702C436.56 32.7969 438.63 30.6636 441.275 29.1702C443.963 27.6769 447.035 26.9302 450.491 26.9302C453.819 26.9302 456.784 27.6556 459.387 29.1062C461.99 30.5569 464.016 32.6049 465.467 35.2502C466.918 37.8529 467.643 40.8609 467.643 44.2742ZM460.027 41.9702C459.984 39.2822 459.024 37.1276 457.147 35.5062C455.27 33.8849 452.944 33.0742 450.171 33.0742C447.654 33.0742 445.499 33.8849 443.707 35.5062C441.915 37.0849 440.848 39.2396 440.507 41.9702H460.027ZM492.615 26.9302C495.388 26.9302 497.863 27.5062 500.039 28.6582C502.258 29.8102 503.986 31.5169 505.223 33.7782C506.46 36.0396 507.079 38.7702 507.079 41.9702V62.7702H499.847V43.0582C499.847 39.9009 499.058 37.4902 497.479 35.8262C495.9 34.1196 493.746 33.2662 491.015 33.2662C488.284 33.2662 486.108 34.1196 484.487 35.8262C482.908 37.4902 482.119 39.9009 482.119 43.0582V62.7702H474.823V27.5062H482.119V31.5382C483.314 30.0876 484.828 28.9569 486.663 28.1462C488.54 27.3356 490.524 26.9302 492.615 26.9302ZM513.953 44.9782C513.953 41.4369 514.679 38.3009 516.129 35.5702C517.623 32.8396 519.628 30.7276 522.145 29.2342C524.705 27.6982 527.543 26.9302 530.657 26.9302C532.961 26.9302 535.223 27.4422 537.441 28.4662C539.703 29.4476 541.495 30.7702 542.817 32.4342V15.4102H550.177V62.7702H542.817V57.4582C541.623 59.1649 539.959 60.5729 537.825 61.6822C535.735 62.7916 533.324 63.3462 530.593 63.3462C527.521 63.3462 524.705 62.5782 522.145 61.0422C519.628 59.4636 517.623 57.2876 516.129 54.5142C514.679 51.6982 513.953 48.5196 513.953 44.9782ZM542.817 45.1062C542.817 42.6742 542.305 40.5622 541.281 38.7702C540.3 36.9782 538.999 35.6129 537.377 34.6742C535.756 33.7356 534.007 33.2662 532.129 33.2662C530.252 33.2662 528.503 33.7356 526.881 34.6742C525.26 35.5702 523.937 36.9142 522.913 38.7062C521.932 40.4556 521.441 42.5462 521.441 44.9782C521.441 47.4102 521.932 49.5436 522.913 51.3782C523.937 53.2129 525.26 54.6209 526.881 55.6022C528.545 56.5409 530.295 57.0102 532.129 57.0102C534.007 57.0102 535.756 56.5409 537.377 55.6022C538.999 54.6636 540.3 53.2982 541.281 51.5062C542.305 49.6716 542.817 47.5382 542.817 45.1062ZM572.56 63.3462C569.787 63.3462 567.291 62.8556 565.072 61.8742C562.896 60.8502 561.168 59.4849 559.888 57.7782C558.608 56.0289 557.926 54.0876 557.84 51.9542H565.392C565.52 53.4476 566.224 54.7062 567.504 55.7302C568.827 56.7116 570.47 57.2022 572.432 57.2022C574.48 57.2022 576.059 56.8182 577.168 56.0502C578.32 55.2396 578.896 54.2156 578.896 52.9782C578.896 51.6556 578.256 50.6742 576.976 50.0342C575.739 49.3942 573.755 48.6902 571.024 47.9222C568.379 47.1969 566.224 46.4929 564.56 45.8102C562.896 45.1276 561.446 44.0822 560.208 42.6742C559.014 41.2662 558.416 39.4102 558.416 37.1062C558.416 35.2289 558.971 33.5222 560.08 31.9862C561.19 30.4076 562.768 29.1702 564.816 28.2742C566.907 27.3782 569.296 26.9302 571.984 26.9302C575.995 26.9302 579.216 27.9542 581.648 30.0022C584.123 32.0076 585.446 34.7596 585.616 38.2582H578.32C578.192 36.6796 577.552 35.4209 576.4 34.4822C575.248 33.5436 573.691 33.0742 571.728 33.0742C569.808 33.0742 568.336 33.4369 567.312 34.1622C566.288 34.8876 565.776 35.8476 565.776 37.0422C565.776 37.9809 566.118 38.7702 566.8 39.4102C567.483 40.0502 568.315 40.5622 569.296 40.9462C570.278 41.2876 571.728 41.7356 573.648 42.2902C576.208 42.9729 578.299 43.6769 579.92 44.4022C581.584 45.0849 583.014 46.1089 584.208 47.4742C585.403 48.8396 586.022 50.6529 586.064 52.9142C586.064 54.9196 585.51 56.7116 584.4 58.2902C583.291 59.8689 581.712 61.1062 579.664 62.0022C577.659 62.8982 575.291 63.3462 572.56 63.3462Z" fill="#62727E"/>
<rect width="74.8323" height="76.6154" rx="37.4161" fill="#A3B2C7"/>
<rect x="32.7393" y="31.9231" width="49.8882" height="51.0769" rx="24.9441" fill="#333F4E"/>
</svg>
